<svg width="0" height="0" xmlns="http://www.w3.org/2000/svg">
	<symbol id="fb-icon" viewBox="0 0 32 56">
    <path fill="currentColor" d="M7.827 55.708h11.667V32.346h10.511l1.155-11.608H19.494v-5.863a2.916 2.916 0 0 1 2.916-2.917h8.75V.292h-8.75A14.583 14.583 0 0 0 7.827 14.875v5.863H1.994L.839 32.346h6.988v23.362Z"/>
  </symbol>
  <symbol id="tw-icon" viewBox="0 0 59 48">
    <path fill="currentColor" d="M52.263 12.325c.038.51.038 1.018.038 1.525 0 15.531-11.821 33.428-33.425 33.428-6.656 0-12.84-1.928-18.043-5.276.945.108 1.855.146 2.838.146a23.537 23.537 0 0 0 14.587-5.02A11.772 11.772 0 0 1 7.27 28.982c.727.108 1.456.18 2.22.18 1.053 0 2.112-.145 3.095-.399a11.745 11.745 0 0 1-9.421-11.53v-.145a11.854 11.854 0 0 0 5.308 1.49 11.731 11.731 0 0 1-5.238-9.782c0-2.182.58-4.183 1.598-5.927a33.416 33.416 0 0 0 24.226 12.294 13.353 13.353 0 0 1-.292-2.693A11.743 11.743 0 0 1 40.515.723c3.383 0 6.437 1.418 8.583 3.71a23.208 23.208 0 0 0 7.455-2.838 11.725 11.725 0 0 1-5.165 6.475 23.546 23.546 0 0 0 6.764-1.82 25.215 25.215 0 0 1-5.89 6.076Z"/>
  </symbol>
  <symbol id="in-icon" viewBox="0 0 54 54">
    <path fill="currentColor" d="M50.333.75H3.667A2.917 2.917 0 0 0 .75 3.667v46.666a2.916 2.916 0 0 0 2.917 2.917h46.666a2.916 2.916 0 0 0 2.917-2.917V3.667A2.917 2.917 0 0 0 50.333.75Zm-34.01 44.733H8.528V20.429h7.793v25.054Zm-3.898-28.475a4.515 4.515 0 1 1 0-9.031 4.515 4.515 0 0 1 0 9.03Zm33.06 28.475h-7.784V33.3c0-2.905-.052-6.641-4.048-6.641-4.054 0-4.67 3.167-4.67 6.437v12.39h-7.778V20.432h7.466v3.424h.108c1.036-1.969 3.579-4.046 7.362-4.046 7.887 0 9.342 5.186 9.342 11.935v13.738h.003Z"/>
    </symbol>
  <symbol id="pin-icon" viewBox="0 0 60 60">
    <path fill="currentColor" d="M21.367 57.825c2.8.846 5.629 1.342 8.633 1.342A29.167 29.167 0 1 0 .833 30c0 12.396 7.788 23.042 18.784 27.242-.263-2.275-.525-6.038 0-8.634L22.97 34.2s-.846-1.692-.846-4.375c0-4.025 2.508-7.03 5.367-7.03 2.508 0 3.675 1.838 3.675 4.2 0 2.51-1.663 6.097-2.509 9.538-.495 2.859 1.517 5.367 4.434 5.367 5.191 0 9.216-5.542 9.216-13.358 0-7-5.016-11.784-12.22-11.784-8.226 0-13.067 6.125-13.067 12.571 0 2.508.816 5.046 2.158 6.709.263.175.263.408.175.845l-.846 3.18c0 .495-.32.67-.816.32-3.734-1.633-5.892-6.941-5.892-11.229 0-9.216 6.533-17.587 19.133-17.587 10.034 0 17.85 7.204 17.85 16.77 0 10.034-6.212 18.084-15.108 18.084-2.83 0-5.6-1.517-6.592-3.296l-1.954 6.913c-.67 2.508-2.508 5.862-3.762 7.875v-.088Z"/>
    </symbol>
    <symbol id="insta-icon" viewBox="0 0 70 70">
      <path fill="currentColor" d="M61.096 24.223a19.048 19.048 0 0 0-1.222-6.463 13.446 13.446 0 0 0-7.68-7.68 19.267 19.267 0 0 0-6.376-1.225c-2.806-.126-3.695-.16-10.818-.16-7.122 0-8.035 0-10.82.16-2.179.045-4.334.46-6.374 1.225a13.436 13.436 0 0 0-7.68 7.68 19.115 19.115 0 0 0-1.221 6.372c-.126 2.81-.164 3.699-.164 10.821 0 7.123 0 8.033.164 10.821a19.237 19.237 0 0 0 1.222 6.379 13.446 13.446 0 0 0 7.682 7.677c2.034.796 4.19 1.24 6.373 1.312 2.809.125 3.699.163 10.821.163 7.123 0 8.035 0 10.82-.163A19.223 19.223 0 0 0 52.2 59.92a13.461 13.461 0 0 0 7.68-7.68 19.21 19.21 0 0 0 1.221-6.379c.126-2.805.164-3.695.164-10.82-.006-7.123-.006-8.027-.17-10.818Zm-26.113 24.2c-7.45 0-13.484-6.035-13.484-13.484 0-7.45 6.035-13.484 13.484-13.484a13.484 13.484 0 1 1 0 26.967ZM49.003 24.1a3.14 3.14 0 0 1-2.905-4.347 3.142 3.142 0 0 1 6.046 1.203 3.141 3.141 0 0 1-3.14 3.144Z"/>
      <path fill="currentColor" d="M34.983 43.697a8.759 8.759 0 1 0 0-17.517 8.759 8.759 0 0 0 0 17.517Z"/>
    </symbol>
    <symbol id="github-icon" viewBox="0 0 60 58">
      <path fill="currentColor" fill-rule="evenodd" d="M30.075.833C14.008.833.985 13.856.985 29.924c0 12.851 8.332 23.757 19.894 27.607 1.455.262 1.98-.633 1.98-1.404 0-.69-.023-2.522-.032-4.946-8.093 1.756-9.803-3.903-9.803-3.903-1.318-3.36-3.228-4.255-3.228-4.255-2.64-1.806.201-1.765.201-1.765 2.922.204 4.454 2.999 4.454 2.999 2.596 4.445 6.813 3.161 8.464 2.418.265-1.882 1.024-3.165 1.852-3.891-6.457-.732-13.247-3.229-13.247-14.38 0-3.17 1.134-5.771 2.986-7.802-.294-.737-1.3-3.698.289-7.7 0 0 2.441-.784 7.998 2.979a27.942 27.942 0 0 1 7.28-.98c2.459.003 4.907.333 7.28.98 5.559-3.766 7.997-2.979 7.997-2.979 1.59 4.002.592 6.963.289 7.7 1.866 2.03 2.986 4.63 2.986 7.803 0 11.18-6.795 13.635-13.276 14.355 1.035.899 1.969 2.672 1.969 5.385 0 3.89-.035 7.029-.035 7.982 0 .78.519 1.683 2.003 1.398 11.556-3.856 19.88-14.753 19.88-27.6 0-16.069-13.023-29.092-29.09-29.092Z" clip-rule="evenodd"/>
    </symbol>
    <symbol id="rss-icon" viewBox="0 0 70 70">
      <path fill="currentColor"  d="M18.025 58.333a6.358 6.358 0 1 0 0-12.716 6.358 6.358 0 0 0 0 12.716Z"/>
      <path fill="currentColor" d="M11.667 12.95v8.254c20.504 0 37.129 16.625 37.129 37.13h8.254c0-25.055-20.33-45.384-45.383-45.384Zm0 16.508v8.254c11.375 0 20.62 9.246 20.62 20.621h8.255c0-15.954-12.921-28.875-28.875-28.875Z"/>
    </symbol>
    <symbol id="tringal-icon" viewBox="0 0 30 20">
    <path fill="#E2E2E2" d="M15 20 0 0h30L15 20Z"/>
    </symbol>
</svg>


